# xmcd
#
# Track frame offsets: 
#        150
#        16044
#        48947
#        64388
#        82425
#        101208
#        113204
#        130125
#        147492
#        168014
#        180872
#        193648
#
# Disc length: 2956 seconds
#
# Revision: 1
# Processed by: cddbd v1.5.1PL2 Copyright (c) Steve Scherf et al.
# Submitted via: ExactAudioCopy v0.95a5
#
DISCID=a30b8a0c
DTITLE=Various Artist - Ichiban Blues at Christmas
DYEAR=1900
DGENRE=Xmas
TTITLE0=Francine Reed - Go Tell It on the Mountain
TTITLE1=Bob Thompson - Angels We Have Heard on High
TTITLE2=Blues Boy Willie - Christmas Pretty Baby
TTITLE3=Jerry McCain - I Wanna Be Your Santa Claus
TTITLE4=Travis Haddix - Santa Claus Got the Blues
TTITLE5=Slim Fatz - Southern Christmas
TTITLE6=Willie Hill - Lonely, Lonely Christmas
TTITLE7=Jerry McCain - Absent Minded Santa
TTITLE8=Little Johnny Taylor - Christmas Is Here Again
TTITLE9=Drink Small - Christmas, Don't Forget About Me
TTITLE10=Gary B.B. Coleman and Blues Boy Willie - All I Need For Christm
TTITLE10=as Is You
TTITLE11=Jerry McCain - Sad, Sad Christmas (feat. Gary B.B. Coleman)
EXTD=
EXTT0=
EXTT1=
EXTT2=
EXTT3=
EXTT4=
EXTT5=
EXTT6=
EXTT7=
EXTT8=
EXTT9=
EXTT10=
EXTT11=
PLAYORDER=
